<mxfile host="app.diagrams.net" modified="2023-07-05T17:03:07.816Z" agent="Mozilla/5.0 (Windows NT 10.0; Win64; x64) AppleWebKit/537.36 (KHTML, like Gecko) Chrome/114.0.0.0 Safari/537.36" version="21.6.1" etag="4lJkUfGQh4VeHK6pby01" type="github">
  <diagram name="Страница 1" id="r6BiXpioU9J_zREN7Pe-">
    <mxGraphModel>
      <root>
        <mxCell id="0" />
        <mxCell id="1" parent="0" />
      </root>
    </mxGraphModel>
  </diagram>
</mxfile>
